<?xml version="1.0" encoding="UTF-8" standalone="no"?>
<svg
   xmlns:dc="http://purl.org/dc/elements/1.1/"
   xmlns:cc="http://creativecommons.org/ns#"
   xmlns:rdf="http://www.w3.org/1999/02/22-rdf-syntax-ns#"
   xmlns:svg="http://www.w3.org/2000/svg"
   xmlns="http://www.w3.org/2000/svg"
   xmlns:sodipodi="http://sodipodi.sourceforge.net/DTD/sodipodi-0.dtd"
   xmlns:inkscape="http://www.inkscape.org/namespaces/inkscape"
   version="1.1"
   id="Group_1282"
   x="0px"
   y="0px"
   width="50px"
   height="50px"
   viewBox="0 0 132 132.00001"
   enable-background="new 0 0 76.625 65.326"
   xml:space="preserve"
   sodipodi:docname="linkedin-white.svg"
   inkscape:version="1.0.1 (3bc2e813f5, 2020-09-07)"><metadata
   id="metadata10"><rdf:RDF><cc:Work
       rdf:about=""><dc:format>image/svg+xml</dc:format><dc:type
         rdf:resource="http://purl.org/dc/dcmitype/StillImage" /></cc:Work></rdf:RDF></metadata><defs
   id="defs8" /><sodipodi:namedview
   pagecolor="#ffffff"
   bordercolor="#666666"
   borderopacity="1"
   objecttolerance="10"
   gridtolerance="10"
   guidetolerance="10"
   inkscape:pageopacity="0"
   inkscape:pageshadow="2"
   inkscape:window-width="1848"
   inkscape:window-height="1009"
   id="namedview6"
   showgrid="false"
   showguides="true"
   inkscape:guide-bbox="true"
   inkscape:zoom="1.6034964"
   inkscape:cx="-55.845168"
   inkscape:cy="153.01329"
   inkscape:window-x="72"
   inkscape:window-y="34"
   inkscape:window-maximized="1"
   inkscape:current-layer="layer2"><sodipodi:guide
     position="-34.419052,18.419573"
     orientation="0,-1"
     id="guide26" /><sodipodi:guide
     position="16.912935,162.96685"
     orientation="1,0"
     id="guide28" /><sodipodi:guide
     position="114.76269,180.01201"
     orientation="1,0"
     id="guide30" /></sodipodi:namedview>
<g
   inkscape:groupmode="layer"
   id="layer2"
   inkscape:label="132"
   transform="translate(34.08905,37.320797)"><rect
     style="opacity:0;fill:#ff0000"
     id="rect24"
     width="132"
     height="132"
     x="-34.08905"
     y="-37.320797" /></g><path
   id="Path_2525"
   fill="#ffffff"
   d="m 126.23886,108.24848 c 0.9832,0.0119 1.78966,-0.77824 1.79856,-1.76441 0,-0.0401 0,-0.0802 -0.003,-0.1203 0,-1.33518 -0.80646,-1.9753 -2.45947,-1.9753 h -2.67479 v 6.99822 h 1.00696 v -3.05058 h 1.23568 l 0.0282,0.0356 1.91738,3.01345 h 1.07527 l -2.06292,-3.1189 z m -1.16291,-0.69804 h -1.16587 v -2.3674 h 1.47628 c 0.76487,0 1.63519,0.12476 1.63519,1.1243 0,1.14953 -0.88071,1.24162 -1.95006,1.24162"
   style="display:inline;stroke-width:1.48518" />
<path
   id="Path_2520"
   fill="#ffffff"
   d="M 100.32338,99.316796 H 85.874668 V 76.691864 c 0,-5.395127 -0.09481,-12.340326 -7.514054,-12.340326 -7.524588,0 -8.675851,5.87821 -8.675851,11.947542 V 99.315292 H 55.237553 V 52.789256 h 13.869321 v 6.358276 h 0.194135 c 2.827741,-4.835299 8.087427,-7.723236 13.684216,-7.515558 14.641343,0 17.342675,9.631473 17.342675,22.161417 z M 38.936283,46.429475 c -4.630631,0 -8.383897,-3.751762 -8.385401,-8.382393 0,-4.630631 3.753265,-8.385401 8.382391,-8.385401 4.629128,0 8.383897,3.75176 8.385403,8.382392 0,4.630631 -3.75176,8.385402 -8.382393,8.385402 v 0 m 7.223605,52.887321 H 31.69763 V 52.789256 H 46.159888 Z M 107.52441,16.245342 H 24.437906 c -3.926329,-0.04364 -7.146854,3.101632 -7.195011,7.027962 v 83.431136 c 0.04665,3.92783 3.265672,7.07612 7.195011,7.03549 h 83.086504 c 3.93687,0.0497 7.16943,-3.10014 7.22511,-7.03549 V 23.267286 c -0.0572,-3.933856 -3.28975,-7.079131 -7.22511,-7.027964"
   style="stroke-width:1.50491" />
<path
   id="Path_2526"
   fill="none"
   d="m 125.19774,101.27254 c -3.62387,0.0342 -6.53336,3.00157 -6.4992,6.62395 0.0342,3.62386 3.00158,6.53335 6.62396,6.49919 3.62386,-0.0341 6.53186,-3.00157 6.4977,-6.62543 -0.0327,-3.57337 -2.92285,-6.46355 -6.4977,-6.49771 h -0.12476 m 0,12.37164 c -3.1798,0.052 -5.79522,-2.48027 -5.84868,-5.65709 -0.0535,-3.17831 2.47878,-5.79522 5.65858,-5.84868 3.17682,-0.0535 5.79521,2.47878 5.84867,5.65709 0,0.0327 0,0.0639 0,0.0965 0.0669,3.1085 -2.39858,5.68085 -5.50856,5.74917 h -0.14852"
   style="stroke-width:1.48518" />
</svg>
